<svg width="19" height="15" viewBox="0 0 19 15" fill="none" xmlns="http://www.w3.org/2000/svg">
<path d="M9.35783 8.19625L9.35664 8.19518C8.10521 7.06789 3.94009 3.52975 1.44783 1.4186C1.60566 1.29257 1.79831 1.225 1.99999 1.225H17C17.2017 1.225 17.3943 1.29257 17.5522 1.4186C15.0598 3.52979 10.8947 7.06828 9.64221 8.19668L9.64161 8.19722C9.5573 8.27339 9.51205 8.27462 9.49998 8.27462C9.48876 8.27462 9.4433 8.27366 9.35783 8.19625ZM1.29527 1.57298L1.29528 1.57297L1.29527 1.57298Z" stroke="#015989" stroke-width="1.2"/>
<path d="M9.0683 8.29169L9.47924 8.71743L9.91065 8.31245L9.5 7.875L9.91069 8.31242L9.91074 8.31237L9.91087 8.31225L9.91122 8.31192L9.91235 8.31085L9.91627 8.30716L9.93066 8.29354L9.98489 8.24176C10.0321 8.19649 10.1009 8.1299 10.1891 8.04321C10.3654 7.86984 10.6193 7.61597 10.9321 7.29129C12.056 6.12475 15.0696 3.59853 17.5214 1.62695C17.6394 1.70996 17.7889 1.81415 17.9 1.8848V12.6502C17.9 13.3515 17.42 13.775 17 13.775H2.00001C1.58001 13.775 1.1 13.3515 1.1 12.6502V1.95104C1.18819 1.94112 1.29198 1.93256 1.39707 1.92719C1.52295 1.92075 1.63715 1.9196 1.72081 1.92369L1.88882 2.06437C2.06386 2.21104 2.3153 2.42198 2.62071 2.67892C3.23161 3.19286 4.05814 3.8906 4.92107 4.62608C6.66203 6.10991 8.50771 7.71092 9.0683 8.29169ZM2 1.375L1.61553 1.83541C1.61551 1.83539 1.61549 1.83538 1.61547 1.83536L2 1.375Z" stroke="#015989" stroke-width="1.2"/>
</svg>
