<svg width="15" height="21" viewBox="0 0 15 21" fill="none" xmlns="http://www.w3.org/2000/svg">
<path d="M7.65604 0.601546L7.65592 0.601543C7.55222 0.599486 7.44781 0.599486 7.34407 0.601543L7.34395 0.601546C4.93056 0.64894 2.77106 1.88688 1.55591 3.90558C0.313989 5.96878 0.280765 8.43778 1.46462 10.5238L6.87233 20.0524L6.87382 20.055L6.87397 20.0553L6.874 20.0553L6.87455 20.0562L6.87462 20.0564L7.65604 0.601546ZM7.65604 0.601546C10.0695 0.64894 12.229 1.88688 13.4441 3.90557L13.9581 3.59614M7.65604 0.601546L13.9581 3.59614M13.9581 3.59614L13.4441 3.90557C14.686 5.96878 14.7192 8.43778 13.5354 10.5238L8.12774 20.0524L8.12625 20.055L8.1261 20.0553L8.12583 20.0557L8.12554 20.0562L13.9581 3.59614ZM7.50008 21C7.97624 21 8.4026 20.7622 8.64055 20.3641H6.35952C6.59752 20.7623 7.02388 21 7.50008 21ZM7.50008 20.4C7.22817 20.4 7.00081 20.2675 6.8746 20.0563L8.12551 20.0563C7.99933 20.2674 7.77194 20.4 7.50008 20.4ZM3.83238 6.56251C3.83238 8.54355 5.49885 10.1156 7.49999 10.1156C9.50119 10.1156 11.1676 8.54355 11.1676 6.56251C11.1676 4.58148 9.50114 3.00939 7.49999 3.00939C5.49885 3.00939 3.83238 4.58148 3.83238 6.56251Z" stroke="#015989" stroke-width="1.2"/>
</svg>
