<svg width="18" height="17" viewBox="0 0 18 17" fill="none" xmlns="http://www.w3.org/2000/svg">
<path d="M17.4579 12.6395C17.4081 12.4516 17.3196 12.2762 17.198 12.1247C17.0763 11.9732 16.9242 11.8488 16.7516 11.7598L13.1264 9.88008C12.8339 9.7249 12.4954 9.68009 12.1726 9.75384C11.8498 9.82759 11.5642 10.015 11.368 10.2818L10.7819 11.0853C10.7518 11.1271 10.7075 11.1564 10.6573 11.1677C10.6071 11.179 10.5545 11.1716 10.5094 11.1469C9.64739 10.6561 8.85825 10.0471 8.16486 9.33758C7.45582 8.64374 6.8472 7.85412 6.35667 6.99165C6.33193 6.9465 6.32453 6.89386 6.33587 6.84364C6.3472 6.79341 6.37649 6.74906 6.41821 6.71893L7.21827 6.13245C7.48496 5.93611 7.67223 5.65039 7.74593 5.32741C7.81963 5.00443 7.77486 4.6657 7.61977 4.37299L5.75296 0.748522C5.66331 0.575529 5.53823 0.42338 5.38589 0.30199C5.23354 0.1806 5.05734 0.092694 4.86877 0.0440005C4.6802 -0.00469295 4.48349 -0.0130809 4.29146 0.0193833C4.09943 0.0518475 3.91639 0.124435 3.75428 0.232416L1.47719 1.75727C1.15744 1.9703 0.899262 2.26366 0.728501 2.60797C0.55774 2.95227 0.480397 3.33543 0.50422 3.71906C0.534358 4.36769 0.621638 5.01239 0.765046 5.64567C1.38341 8.03266 2.87509 10.4871 4.94704 12.5632C7.01899 14.6394 9.47485 16.1261 11.8604 16.739C12.4933 16.8825 13.1376 16.9698 13.7858 17H13.9323C14.29 16.9992 14.642 16.9109 14.9577 16.7427C15.2733 16.5746 15.5431 16.3317 15.7434 16.0352L17.2615 13.7567C17.3711 13.5949 17.4452 13.4117 17.479 13.2191C17.5129 13.0266 17.5057 12.829 17.4579 12.6395ZM16.2856 13.1028L14.7763 15.3842C14.6762 15.5322 14.5391 15.6514 14.3787 15.7301C14.2184 15.8088 14.0402 15.8442 13.862 15.8329C13.2871 15.8063 12.7155 15.7308 12.1534 15.6071C9.96719 15.0382 7.70475 13.6629 5.77934 11.7275C3.85392 9.79211 2.4736 7.53708 1.90506 5.34949C1.78042 4.78716 1.70395 4.21522 1.67647 3.63989C1.66476 3.46189 1.70002 3.28393 1.77872 3.12387C1.85741 2.9638 1.97678 2.82725 2.12485 2.72791L4.40195 1.20891C4.43661 1.18569 4.47745 1.17343 4.51917 1.17372H4.57485C4.60371 1.18125 4.63064 1.19481 4.65388 1.21351C4.67712 1.23221 4.69613 1.25563 4.70966 1.28222L6.58526 4.90963C6.60857 4.95461 6.61518 5.00641 6.60391 5.05581C6.59264 5.10521 6.56422 5.149 6.52371 5.17941L5.72365 5.76589C5.45236 5.96786 5.26439 6.26226 5.19527 6.59347C5.12615 6.92468 5.18068 7.26975 5.34854 7.56347C5.89096 8.5122 6.56155 9.38154 7.34136 10.1469C8.10623 10.9273 8.97505 11.5983 9.92323 12.141C10.2168 12.3089 10.5616 12.3635 10.8926 12.2943C11.2236 12.2252 11.5179 12.0371 11.7197 11.7656L12.3058 10.9621C12.3362 10.9216 12.38 10.8932 12.4294 10.8819C12.4787 10.8706 12.5305 10.8772 12.5754 10.9006L16.2006 12.7773C16.2272 12.7912 16.2505 12.8105 16.2691 12.834C16.2877 12.8575 16.3012 12.8846 16.3086 12.9137C16.3161 12.9427 16.3174 12.973 16.3124 13.0025C16.3074 13.0321 16.2963 13.0602 16.2797 13.0852L16.2856 13.1028Z" fill="#015989"/>
</svg>
